<svg xmlns="http://www.w3.org/2000/svg"  viewBox="0 0 64 64" width="64px" height="64px"><path d="M 31 2 C 14.995562 2 2 14.995562 2 31 C 2 47.004438 14.995562 60 31 60 C 47.004438 60 60 47.004438 60 31 C 60 14.995562 47.004438 2 31 2 z M 31 4 C 45.923562 4 58 16.076438 58 31 C 58 45.923562 45.923562 58 31 58 C 16.076438 58 4 45.923562 4 31 C 4 16.076438 16.076438 4 31 4 z M 30.539062 7.0488281 C 29.994689 7.0555916 29.461626 7.0812314 28.939453 7.1230469 A 1.0001 1.0001 0 1 0 29.099609 9.1152344 C 30.053265 9.0388654 31.051669 9.0255054 32.09375 9.0839844 A 1.000573 1.000573 0 1 0 32.205078 7.0859375 C 31.639119 7.054177 31.083436 7.0420646 30.539062 7.0488281 z M 25.128906 7.7832031 A 1.0001 1.0001 0 0 0 24.861328 7.8203125 C 16.622916 10.008788 12.220703 16.117188 12.220703 16.117188 A 1.0001 1.0001 0 1 0 13.841797 17.287109 C 13.841797 17.287109 17.855412 11.749478 25.375 9.7519531 A 1.0001 1.0001 0 0 0 25.128906 7.7832031 z M 32.271484 11.589844 C 27.995424 11.591544 23.67081 13.01291 20.363281 15.667969 C 17.053747 18.324638 14.779297 22.273533 14.779297 27.130859 C 14.779297 30.79801 15.8079 34.172772 18.353516 35.943359 C 18.715911 36.200611 19.222528 36.303767 19.630859 36.222656 C 20.041705 36.141046 20.352548 35.940074 20.615234 35.716797 C 21.140607 35.270242 21.520444 34.684847 21.849609 34.044922 C 22.178774 33.404997 22.438687 32.714945 22.587891 32.054688 C 22.737094 31.39443 22.869634 30.788018 22.521484 30.066406 C 22.171912 29.33045 21.993263 28.524111 22 27.708984 A 1.0001 1.0001 0 0 0 22 27.699219 C 22 25.591603 22.771701 23.175961 24.246094 21.349609 C 25.720486 19.523258 27.835417 18.259766 30.730469 18.259766 C 33.023135 18.259766 35.406467 18.990262 37.121094 20.271484 C 38.83572 21.552707 39.892089 23.297393 39.800781 25.580078 C 39.687883 28.369607 38.823064 31.143174 37.634766 33.140625 C 36.446468 35.138076 34.977358 36.215526 33.894531 36.199219 A 1.0001 1.0001 0 0 0 33.880859 36.199219 C 32.739748 36.199219 32.203423 35.676441 31.808594 34.990234 C 31.611179 34.647131 31.482652 34.264367 31.417969 33.949219 C 31.353289 33.63407 31.384861 33.335439 31.363281 33.427734 A 1.0001 1.0001 0 0 0 31.365234 33.423828 C 31.58388 32.473193 31.884706 31.497258 32.183594 30.550781 C 32.799796 28.870184 33.184171 27.11449 33.326172 25.330078 A 1.0001 1.0001 0 0 0 33.330078 25.25 C 33.330078 23.946792 33.301018 22.773845 32.736328 21.738281 C 32.171636 20.702717 30.971408 20.065829 29.460938 20.019531 C 27.663428 19.963551 26.060344 20.887765 24.976562 22.285156 C 23.892782 23.682548 23.269531 25.559316 23.269531 27.609375 C 23.269531 28.571094 23.397367 29.528792 23.644531 30.457031 A 1.0001 1.0001 0 0 0 23.646484 30.466797 C 23.783371 30.959892 23.795747 31.481519 23.683594 31.982422 L 21.177734 42.457031 A 1.0001 1.0001 0 0 0 21.167969 42.505859 C 20.615681 45.462833 20.587273 48.494556 21.083984 51.460938 C 21.226314 52.332932 21.872278 53.044094 22.726562 53.267578 A 1.0001 1.0001 0 0 0 22.847656 53.291016 C 23.011386 53.312746 23.177273 53.304876 23.341797 53.291016 C 24.029679 53.282316 24.684892 52.97035 25.109375 52.423828 A 1.0001 1.0001 0 0 0 25.119141 52.410156 L 25.167969 52.347656 C 25.169069 52.346256 25.168806 52.343197 25.169922 52.341797 C 25.922095 51.380096 26.45259 49.989635 26.972656 48.414062 C 27.492818 46.838203 27.955352 45.102376 28.345703 43.621094 L 28.347656 43.615234 C 28.458895 43.204827 28.779866 41.942539 29.058594 40.851562 C 30.172211 41.721269 31.601545 42.657304 34.220703 42.808594 C 34.220703 42.808594 34.222656 42.808594 34.222656 42.808594 C 38.238254 43.077558 41.765581 41.24168 44.189453 38.169922 C 46.615122 35.09567 48 30.80342 48 26 A 1.0001 1.0001 0 0 0 48 25.990234 C 47.9634 22.186025 46.385626 18.557714 43.628906 15.935547 A 1.0001 1.0001 0 0 0 43.621094 15.927734 C 40.541898 13.067873 36.472631 11.512535 32.271484 11.589844 z M 32.279297 13.589844 A 1.0001 1.0001 0 0 0 32.298828 13.589844 C 35.981994 13.519834 39.548702 14.880335 42.25 17.384766 C 44.614338 19.633703 45.967561 22.743489 46 26.005859 C 45.9988 30.419855 44.709763 34.280253 42.619141 36.929688 C 40.527539 39.58036 37.697885 41.039788 34.347656 40.8125 A 1.0001 1.0001 0 0 0 34.337891 40.8125 C 31.316796 40.638558 30.458998 39.469784 29.082031 38.376953 A 1.0001 1.0001 0 0 0 27.490234 38.914062 C 27.100812 40.451783 26.565424 42.539509 26.414062 43.097656 A 1.0001 1.0001 0 0 0 26.412109 43.105469 C 26.022764 44.582985 25.56646 46.289919 25.072266 47.787109 C 24.578071 49.284299 23.999874 50.595123 23.59375 51.113281 A 1.0001 1.0001 0 0 0 23.580078 51.130859 L 23.529297 51.197266 C 23.478487 51.262686 23.404066 51.300562 23.318359 51.300781 A 1.0001 1.0001 0 0 0 23.208984 51.306641 C 23.134214 51.274601 23.070239 51.221981 23.056641 51.138672 A 1.0001 1.0001 0 0 0 23.056641 51.134766 C 22.59878 48.402927 22.623838 45.610155 23.130859 42.886719 L 25.632812 32.433594 A 1.0001 1.0001 0 0 0 25.636719 32.417969 C 25.820565 31.596872 25.799332 30.742546 25.574219 29.931641 C 25.373403 29.173493 25.269531 28.39169 25.269531 27.609375 C 25.269531 25.969434 25.782921 24.507374 26.556641 23.509766 C 27.33036 22.512157 28.305946 21.985509 29.398438 22.019531 C 30.497965 22.053231 30.747661 22.268377 30.980469 22.695312 C 31.209711 23.11571 31.320708 24.01279 31.324219 25.210938 C 31.192779 26.814221 30.848308 28.395667 30.291016 29.904297 A 1.0001 1.0001 0 0 0 30.277344 29.949219 C 29.976591 30.901603 29.657265 31.924604 29.416016 32.972656 C 29.30444 33.449951 29.352961 33.844524 29.457031 34.351562 C 29.561098 34.858601 29.753587 35.427634 30.076172 35.988281 C 30.720531 37.108165 32.01985 38.194528 33.875 38.197266 C 36.107647 38.225486 37.97392 36.483072 39.353516 34.164062 C 40.735218 31.841514 41.671726 28.800628 41.798828 25.660156 C 41.917521 22.692842 40.43928 20.256199 38.316406 18.669922 C 36.193533 17.083644 33.437802 16.259766 30.730469 16.259766 C 27.235521 16.259766 24.484514 17.872601 22.691406 20.09375 C 20.899163 22.313828 20.000865 25.11396 20 27.695312 C 19.9913 28.813441 20.236141 29.919848 20.716797 30.929688 A 1.0001 1.0001 0 0 0 20.71875 30.933594 C 20.6456 30.781982 20.740329 31.154789 20.636719 31.613281 C 20.53311 32.071774 20.324351 32.640785 20.072266 33.130859 C 19.829415 33.602982 19.534748 33.984854 19.347656 34.154297 C 17.706988 32.890548 16.779297 30.311188 16.779297 27.130859 C 16.779297 22.888185 18.702269 19.564894 21.615234 17.226562 C 24.5282 14.888233 28.447889 13.589844 32.279297 13.589844 z M 47.197266 43.197266 A 1.0001 1.0001 0 0 0 46.574219 44.980469 L 48.121094 46.248047 A 1.0001 1.0001 0 1 0 49.388672 44.701172 L 47.841797 43.433594 A 1.0001 1.0001 0 0 0 47.197266 43.197266 z M 43.494141 46.652344 A 1.0001 1.0001 0 0 0 42.736328 48.251953 L 43.914062 49.869141 A 1.0002946 1.0002946 0 1 0 45.53125 48.691406 L 44.355469 47.074219 A 1.0001 1.0001 0 0 0 43.494141 46.652344 z M 39.107422 49.121094 A 1.0001 1.0001 0 0 0 38.205078 50.521484 L 38.980469 52.365234 A 1.0001 1.0001 0 1 0 40.824219 51.589844 L 40.048828 49.746094 A 1.0001 1.0001 0 0 0 39.107422 49.121094 z M 34.283203 50.535156 A 1.0001 1.0001 0 0 0 33.28125 51.716797 L 33.617188 53.689453 A 1.0003646 1.0003646 0 1 0 35.589844 53.355469 L 35.253906 51.382812 A 1.0001 1.0001 0 0 0 34.283203 50.535156 z M 29.224609 50.748047 A 1.0001 1.0001 0 0 0 28.25 51.669922 L 28.064453 53.660156 A 1.000405 1.000405 0 0 0 30.056641 53.845703 L 30.242188 51.855469 A 1.0001 1.0001 0 0 0 29.224609 50.748047 z"/></svg>